<svg width="900" height="900" viewBox="0 0 900 900" fill="none" xmlns="http://www.w3.org/2000/svg">
  <rect width="900" height="900" rx="48" fill="#0F172A"/>
  <rect x="40" y="40" width="820" height="820" rx="40" fill="url(#bg)"/>
  <circle cx="705" cy="184" r="132" fill="white" fill-opacity="0.08"/>
  <circle cx="250" cy="708" r="172" fill="white" fill-opacity="0.05"/>
  <circle cx="450" cy="330" r="150" fill="#F8FAFC" fill-opacity="0.95"/>
  <path d="M240 702C265 565 338 490 450 490C562 490 635 565 660 702" fill="#F8FAFC" fill-opacity="0.95"/>
  <path d="M320 302C338 238 389 196 450 196C511 196 562 238 580 302" stroke="#CBD5E1" stroke-width="20" stroke-linecap="round"/>
  <rect x="120" y="748" width="660" height="64" rx="24" fill="#020617" fill-opacity="0.28"/>
  <text x="450" y="785" text-anchor="middle" fill="white" font-family="Segoe UI, Arial, sans-serif" font-size="40" font-weight="700">Sreerag CR</text>
  <text x="450" y="840" text-anchor="middle" fill="#E2E8F0" font-family="Segoe UI, Arial, sans-serif" font-size="24">Data Engineer</text>
  <text x="450" y="396" text-anchor="middle" fill="#0F766E" font-family="Segoe UI, Arial, sans-serif" font-size="80" font-weight="700">SC</text>
  <defs>
    <linearGradient id="bg" x1="60" y1="60" x2="840" y2="840" gradientUnits="userSpaceOnUse">
      <stop stop-color="#0F766E"/>
      <stop offset="1" stop-color="#2563EB"/>
    </linearGradient>
  </defs>
</svg>
