<svg width="1200" height="720" viewBox="0 0 1200 720" fill="none" xmlns="http://www.w3.org/2000/svg">
  <rect width="1200" height="720" rx="40" fill="#111827"/>
  <rect x="40" y="40" width="1120" height="640" rx="32" fill="url(#bg)"/>
  <rect x="126" y="146" width="420" height="290" rx="28" fill="#020617" fill-opacity="0.34" stroke="#C4B5FD" stroke-opacity="0.4"/>
  <rect x="172" y="198" width="140" height="18" rx="9" fill="#EDE9FE"/>
  <rect x="172" y="236" width="248" height="14" rx="7" fill="#DDD6FE"/>
  <rect x="172" y="266" width="214" height="14" rx="7" fill="#C4B5FD" fill-opacity="0.75"/>
  <circle cx="830" cy="220" r="118" fill="#E879F9" fill-opacity="0.16"/>
  <rect x="650" y="182" width="366" height="270" rx="30" fill="#F5F3FF" fill-opacity="0.14" stroke="#DDD6FE" stroke-opacity="0.45"/>
  <rect x="710" y="242" width="248" height="44" rx="14" fill="#8B5CF6"/>
  <rect x="710" y="308" width="208" height="44" rx="14" fill="#A855F7"/>
  <rect x="710" y="374" width="164" height="44" rx="14" fill="#D946EF"/>
  <text x="126" y="530" fill="white" font-family="Segoe UI, Arial, sans-serif" font-size="54" font-weight="700">Cloud and DevOps</text>
  <text x="126" y="590" fill="#EDE9FE" font-family="Segoe UI, Arial, sans-serif" font-size="28">Infrastructure, automation, deployment pipelines, and reliability practices.</text>
  <defs>
    <linearGradient id="bg" x1="40" y1="40" x2="1160" y2="680" gradientUnits="userSpaceOnUse">
      <stop stop-color="#7C3AED"/>
      <stop offset="1" stop-color="#DB2777"/>
    </linearGradient>
  </defs>
</svg>
