<svg width="1200" height="720" viewBox="0 0 1200 720" fill="none" xmlns="http://www.w3.org/2000/svg">
  <rect width="1200" height="720" rx="40" fill="#0F172A"/>
  <rect x="40" y="40" width="1120" height="640" rx="32" fill="url(#bg)"/>
  <circle cx="960" cy="140" r="130" fill="#60A5FA" fill-opacity="0.18"/>
  <circle cx="220" cy="560" r="180" fill="#22D3EE" fill-opacity="0.18"/>
  <rect x="120" y="122" width="420" height="270" rx="28" fill="#111827" fill-opacity="0.74" stroke="#93C5FD" stroke-opacity="0.4"/>
  <rect x="160" y="168" width="220" height="20" rx="10" fill="#BFDBFE"/>
  <rect x="160" y="212" width="320" height="16" rx="8" fill="#93C5FD" fill-opacity="0.7"/>
  <rect x="160" y="246" width="280" height="16" rx="8" fill="#93C5FD" fill-opacity="0.45"/>
  <rect x="160" y="300" width="96" height="40" rx="14" fill="#2563EB"/>
  <path d="M670 210H1030C1043.25 210 1054 220.75 1054 234V492C1054 505.25 1043.25 516 1030 516H670C656.75 516 646 505.25 646 492V234C646 220.75 656.75 210 670 210Z" fill="#E0F2FE" fill-opacity="0.16" stroke="#67E8F9" stroke-opacity="0.45"/>
  <path d="M690 470L770 390L826 434L920 322L1010 434" stroke="#E0F2FE" stroke-width="22" stroke-linecap="round" stroke-linejoin="round"/>
  <circle cx="768" cy="388" r="18" fill="#38BDF8"/>
  <circle cx="918" cy="320" r="18" fill="#22D3EE"/>
  <text x="120" y="500" fill="white" font-family="Segoe UI, Arial, sans-serif" font-size="54" font-weight="700">Computer Science</text>
  <text x="120" y="560" fill="#CBD5E1" font-family="Segoe UI, Arial, sans-serif" font-size="28">Algorithms, systems, programming, and modern software foundations.</text>
  <defs>
    <linearGradient id="bg" x1="76" y1="74" x2="1098" y2="650" gradientUnits="userSpaceOnUse">
      <stop stop-color="#1D4ED8"/>
      <stop offset="1" stop-color="#0F766E"/>
    </linearGradient>
  </defs>
</svg>
