<svg width="1200" height="720" viewBox="0 0 1200 720" fill="none" xmlns="http://www.w3.org/2000/svg">
  <rect width="1200" height="720" rx="40" fill="#0F172A"/>
  <rect x="40" y="40" width="1120" height="640" rx="32" fill="url(#bg)"/>
  <circle cx="980" cy="150" r="118" fill="#93C5FD" fill-opacity="0.2"/>
  <rect x="112" y="132" width="448" height="420" rx="28" fill="#111827" fill-opacity="0.4" stroke="#BFDBFE" stroke-opacity="0.38"/>
  <path d="M198 452C246 330 330 248 446 210" stroke="#DBEAFE" stroke-width="22" stroke-linecap="round"/>
  <circle cx="198" cy="452" r="22" fill="#BFDBFE"/>
  <circle cx="446" cy="210" r="22" fill="#60A5FA"/>
  <circle cx="350" cy="296" r="18" fill="#93C5FD"/>
  <rect x="672" y="170" width="350" height="236" rx="28" fill="#EFF6FF" fill-opacity="0.14" stroke="#BFDBFE" stroke-opacity="0.42"/>
  <rect x="720" y="226" width="136" height="18" rx="9" fill="#EFF6FF"/>
  <rect x="720" y="264" width="238" height="14" rx="7" fill="#BFDBFE"/>
  <rect x="720" y="296" width="194" height="14" rx="7" fill="#93C5FD" fill-opacity="0.7"/>
  <rect x="720" y="342" width="110" height="36" rx="12" fill="#2563EB"/>
  <text x="112" y="598" fill="white" font-family="Segoe UI, Arial, sans-serif" font-size="54" font-weight="700">Data Science</text>
  <text x="112" y="650" fill="#DBEAFE" font-family="Segoe UI, Arial, sans-serif" font-size="28">Analytics, machine learning, experimentation, and business insights.</text>
  <defs>
    <linearGradient id="bg" x1="40" y1="40" x2="1160" y2="680" gradientUnits="userSpaceOnUse">
      <stop stop-color="#2563EB"/>
      <stop offset="1" stop-color="#7C3AED"/>
    </linearGradient>
  </defs>
</svg>
